<svg xmlns="http://www.w3.org/2000/svg" width="813.918" height="792.22" viewBox="0 0 813.918 792.22"><g transform="translate(-975.082 -1158.314)"><path d="M-299.415,560.676c-7.627,12.144-13.515,25.714-14.6,40.013-1.576,20.7,7.04,41,18.773,58.12,26.026,37.98,66.949,63.432,109.608,80.754,54.149,21.988,113.686,32.531,171.59,24.6,50.008-6.85,97.123-27.047,142.822-48.479,59-27.673,117.2-57.962,169.122-97.351,42.773-32.445,80.77-70.665,118.613-108.75l49.967-52.853c27.311-43.513,26.017-51.777,31.52-76,5.588-24.592-2.735-57.059-20.98-157.873C437.45,141.5,418.7,147.881,351.168,87.693c-26.321-23.457-53.393-47.381-86.229-60.219C225.6,12.091,181.454,14.128,140.081,22.648,72.047,36.666,4.991,70.066-33.874,127.635-69.617,180.578-77.547,246.7-92.241,308.864c-10.489,44.367-26.386,90.12-56.955,124.877-26.009,29.571-59.316,45.61-90.823,68.013C-262.84,517.984-284.4,536.756-299.415,560.676Z" transform="translate(1289.288 1162.483)" fill="#f4f4f4"/><g transform="translate(1131.195 1255.38) rotate(-16)"><path d="M321.627,762.417h-105.4a1.45,1.45,0,0,1-1.451-1.449v-2.944h-2.785c-.108,2.893-5.574,14.366-5.574,14.366-1.388,2.2-4.974,7.749-11.913,7.749s-11.872-9.356-11.872-9.356c-11.3-26.6-29.63-137.963-29.491-348.641.1-146.024,4.878-232.284,4.878-232.284V73.034s2.869-17.12,34.024-16.013a17.294,17.294,0,0,1,12.179,5.622C228.06,88.9,245.5,180.363,245.5,180.363H397.751S415.193,88.9,439.036,62.643a17.294,17.294,0,0,1,12.179-5.622c31.155-1.107,34.024,16.013,34.024,16.013V189.857s4.779,86.26,4.878,232.284c.139,210.678-18.188,322.042-29.491,348.641,0,0-4.934,9.356-11.872,9.356s-10.525-5.551-11.913-7.749c0,0-5.466-11.472-5.574-14.366h-2.786v2.944a1.449,1.449,0,0,1-1.449,1.449Z" transform="translate(-153.137 -56.97)" fill="#edf"/><path d="M374.153,179.166h-57.96V135.012l56.039.544Z" transform="translate(-39.835 -2.741)" fill="#f2eea7"/><rect width="0.232" height="0.232" transform="translate(346.421 133.861)" fill="#f2eea7"/><path d="M211.945,179.166H155.5l1.308-44.154h55.138Z" transform="translate(-151.495 -2.741)" fill="#f2eea7"/><rect width="66.003" height="89.576" transform="translate(240.414 177.164)" fill="#7ba0ef"/><rect width="64.704" height="87.883" transform="translate(218.935 420.305)" fill="#7ba0ef"/><rect width="67.519" height="87.883" transform="translate(56.615 420.305)" fill="#7ba0ef"/><rect width="66.003" height="89.576" transform="translate(32.192 177.164)" fill="#7ba0ef"/><rect width="226.837" height="151.368" transform="translate(56.301 267.91)" fill="#efcdb9"/><path d="M371.872,357.311H318.21l.263,43.608h51.106Z" transform="translate(-38.434 151.726)" fill="#f2eea7"/><path d="M368.56,474.243l-53.577.082-8.018-91.285h70.426Z" transform="translate(-46.247 169.604)" fill="#7ba0ef"/><path d="M210.188,357.309h-51.3l.228,5.05.532,28.473,5.428,57.574,45.713-.49.234-46.841Z" transform="translate(-149.14 151.724)" fill="#f2eea7"/></g><g transform="matrix(0.966, -0.259, 0.259, 0.966, 1133.82, 1248.321)"><path d="M172.087,706.14l-106.836-.405a1.473,1.473,0,0,1-1.474-1.455l-.011-2.945-2.824-.011c-.1,2.893-5.595,14.348-5.595,14.348-1.4,2.193-5.01,7.732-12.045,7.705s-12.07-9.4-12.07-9.4C19.673,687.324.126,575.859,0,365.129-.083,218.908,4.867,132.462,4.052,132.8L3.6,15.949S6.446-1.164,38.028.063a17.773,17.773,0,0,1,12.366,5.67c24.268,26.357,42.3,117.909,42.3,117.909l154.314.585S264.335,32.809,288.4,6.636a17.484,17.484,0,0,1,12.323-5.577C332.3.072,335.27,17.207,335.27,17.207l.449,116.854s5.177,86.3,5.837,232.363c.951,210.733-17.2,322.056-28.551,348.618,0,0-4.965,9.339-12,9.312s-10.689-5.593-12.1-7.8c0,0-5.586-11.5-5.705-14.391l-2.824-.011.011,2.945a1.446,1.446,0,0,1-1.463,1.444Z" transform="translate(0.245 0)" fill="none" stroke="#6375fe" stroke-miterlimit="10" stroke-width="2.5"/><line x1="37.84" y1="0.143" transform="translate(279.936 699.687)" fill="none" stroke="#6375fe" stroke-miterlimit="10" stroke-width="2.5"/><line x1="58.868" y1="0.223" transform="translate(268.517 645.543)" fill="none" stroke="#6375fe" stroke-miterlimit="10" stroke-width="2.5"/><line x1="38.057" y1="0.144" transform="translate(26.693 698.727)" fill="none" stroke="#6375fe" stroke-miterlimit="10" stroke-width="2.5"/><line x1="64.149" y1="0.243" transform="translate(16.395 600.353)" fill="none" stroke="#6375fe" stroke-miterlimit="10" stroke-width="2.5"/><line x1="37.213" y1="0.141" transform="translate(47.476 553.586)" fill="none" stroke="#6375fe" stroke-miterlimit="10" stroke-width="2.5"/><path d="M0,0,14.714.056l13.3,15.188" transform="translate(12.189 553.453)" fill="none" stroke="#6375fe" stroke-miterlimit="10" stroke-width="2.5"/><path d="M229.7,158.419l-.072-18.8-7.082-.095c-1.578-5.332-4.9-20.092-9.952-40.419C207.518,78.7,201.879.664,201.879.664L118.659.349l.02,5.222-8.752-.033-.02-5.222L26.678,0s-5.039,77.991-9.957,98.366c-4.894,20.289-8.1,35.024-9.64,40.345L0,138.752l.072,18.8" transform="translate(57.362 553.578)" fill="none" stroke="#6375fe" stroke-miterlimit="10" stroke-width="2.5"/><line x2="59.448" y2="0.225" transform="translate(16.214 644.587)" fill="none" stroke="#6375fe" stroke-miterlimit="10" stroke-width="2.5"/><path d="M0,0,.517,134.548l94,.356C83.9,107.287,77.835,50.353,75.392.286Z" transform="translate(180.146 560.196)" fill="none" stroke="#6375fe" stroke-miterlimit="10" stroke-width="2.5"/><path d="M93.139.285l.517,134.548L0,134.477C10.411,106.939,16.034,50.05,18.093,0Z" transform="translate(70.032 559.847)" fill="none" stroke="#6375fe" stroke-miterlimit="10" stroke-width="2.5"/><path d="M0,0" transform="translate(45.607 667.687)" fill="none" stroke="#6375fe" stroke-miterlimit="10" stroke-width="2.5"/><path d="M54.372,12.161a22.908,22.908,0,0,0-8.03-3.689c-8.595-1.8-13.517,7.452-20.9,8.511C20.182,17.738,11.257,15.783,0,0" transform="translate(17.111 650.692)" fill="none" stroke="#6375fe" stroke-miterlimit="10" stroke-width="2.5"/><path d="M216.633,7.229,216.609.807,0,0,.025,6.632" transform="translate(63.984 694.409)" fill="none" stroke="#6375fe" stroke-miterlimit="10" stroke-width="2.5"/><path d="M0,32.259A228.115,228.115,0,0,0,6.341,0" transform="translate(60.628 660.053)" fill="none" stroke="#6375fe" stroke-miterlimit="10" stroke-width="2.5"/><path d="M47.731,188.753c-3.909,10.081-8.566,16.276-12.7,16.213-8.313-.13-17.694-27.954-21.814-60.991C13.214,143.976.142,37.017,0,0" transform="translate(9.671 513.879)" fill="none" stroke="#6375fe" stroke-miterlimit="10" stroke-width="2.5"/><path d="M1.441,0l.353,91.824S1.642,111.067,0,136.051" transform="translate(61.672 508.708)" fill="none" stroke="#6375fe" stroke-miterlimit="10" stroke-width="2.5"/><line x2="0.169" y2="43.865" transform="translate(55.743 600.872)" fill="none" stroke="#6375fe" stroke-miterlimit="10" stroke-width="2.5"/><line x2="0.169" y2="44.061" transform="translate(25.384 600.562)" fill="none" stroke="#6375fe" stroke-miterlimit="10" stroke-width="2.5"/><line x2="0.515" y2="134.151" transform="translate(171.126 420.209)" fill="none" stroke="#6375fe" stroke-miterlimit="10" stroke-width="2.5"/><line x2="0.514" y2="133.701" transform="translate(221.956 420.402)" fill="none" stroke="#6375fe" stroke-miterlimit="10" stroke-width="2.5"/><line x2="0.514" y2="133.701" transform="translate(126.514 420.04)" fill="none" stroke="#6375fe" stroke-miterlimit="10" stroke-width="2.5"/><path d="M0,0,.174,45.314l175.212.664L175.212.664" transform="translate(83.865 508.264)" fill="none" stroke="#6375fe" stroke-miterlimit="10" stroke-width="2.5"/><line x1="239.577" y1="0.908" transform="translate(52.949 508.147)" fill="none" stroke="#6375fe" stroke-miterlimit="10" stroke-width="2.5"/><path d="M0,13.883l25.52.1L40.628,0" transform="translate(3.886 494.078)" fill="none" stroke="#6375fe" stroke-miterlimit="10" stroke-width="2.5"/><path d="M40.233,14.626l-23.354-.089L0,0" transform="translate(299.387 494.608)" fill="none" stroke="#6375fe" stroke-miterlimit="10" stroke-width="2.5"/><line x1="25.571" y1="0.097" transform="translate(316.333 420.76)" fill="none" stroke="#6375fe" stroke-miterlimit="10" stroke-width="2.5"/><line x1="25.571" y1="0.097" transform="translate(316.057 348.916)" fill="none" stroke="#6375fe" stroke-miterlimit="10" stroke-width="2.5"/><line x1="26.435" y1="0.1" transform="translate(315.02 303.805)" fill="none" stroke="#6375fe" stroke-miterlimit="10" stroke-width="2.5"/><path d="M0,0,28.718.109,43.941,16.2" transform="translate(0.349 419.561)" fill="none" stroke="#6375fe" stroke-miterlimit="10" stroke-width="2.5"/><line x1="240.968" y1="0.914" transform="translate(51.219 419.754)" fill="none" stroke="#6375fe" stroke-miterlimit="10" stroke-width="2.5"/><line x1="39.211" y1="0.149" transform="translate(259.251 554.242)" fill="none" stroke="#6375fe" stroke-miterlimit="10" stroke-width="2.5"/><path d="M31.426.063,14.9,0,0,15.317" transform="translate(304.778 554.471)" fill="none" stroke="#6375fe" stroke-miterlimit="10" stroke-width="2.5"/><line x2="0.34" y2="88.387" transform="translate(287.538 420.65)" fill="none" stroke="#6375fe" stroke-miterlimit="10" stroke-width="2.5"/><line x2="0.338" y2="87.94" transform="translate(57.433 419.778)" fill="none" stroke="#6375fe" stroke-miterlimit="10" stroke-width="2.5"/><line x1="9.227" y2="90.055" transform="translate(315.758 554.78)" fill="none" stroke="#6375fe" stroke-miterlimit="10" stroke-width="2.5"/><path d="M0,0C.036,5.805.688,9.606,8.279,16.269" transform="translate(297.648 553.542)" fill="none" stroke="#6375fe" stroke-miterlimit="10" stroke-width="2.5"/><path d="M0,0C.024,6.2,1.252,9.775,8.47,17.16" transform="translate(291.335 419.817)" fill="none" stroke="#6375fe" stroke-miterlimit="10" stroke-width="2.5"/><path d="M8.029,0C8.053,6.195,7.253,10.9,0,17.541" transform="translate(43.779 418.915)" fill="none" stroke="#6375fe" stroke-miterlimit="10" stroke-width="2.5"/><path d="M0,15.447C0,9.714,1.085,7.039,8.137,0" transform="translate(292.373 494.457)" fill="none" stroke="#6375fe" stroke-miterlimit="10" stroke-width="2.5"/><path d="M8.678,0C8.7,6.48,8.719,9.382,0,16.627" transform="translate(38.545 552.747)" fill="none" stroke="#6375fe" stroke-miterlimit="10" stroke-width="2.5"/><path d="M9.656,15.769C9.633,9.608,7.15,7.178,0,0" transform="translate(44.16 493.226)" fill="none" stroke="#6375fe" stroke-miterlimit="10" stroke-width="2.5"/><path d="M0,0,31.339.119l3.53,78.665-27.6-.1Z" transform="translate(266.334 559.928)" fill="none" stroke="#6375fe" stroke-miterlimit="10" stroke-width="2.5"/><path d="M.057,14.847c.374-.244,16.911.064,16.911.064L16.911.064,0,0Z" transform="translate(269.089 565.092)" fill="none" stroke="#6375fe" stroke-miterlimit="10" stroke-width="2.5"/><line x2="4.53" y2="78.669" transform="translate(289.212 560.015)" fill="none" stroke="#6375fe" stroke-miterlimit="10" stroke-width="2.5"/><path d="M8.551,0a8.606,8.606,0,0,1,8.616,8.5,8.449,8.449,0,0,1-8.551,8.438A8.606,8.606,0,0,1,0,8.438,8.449,8.449,0,0,1,8.551,0Z" transform="translate(29.136 569.033)" fill="none" stroke="#6375fe" stroke-width="2.5"/><line x2="4.545" y2="45.897" transform="translate(15.666 554.123)" fill="none" stroke="#6375fe" stroke-miterlimit="10" stroke-width="2.5"/><line y1="9.707" x2="17.746" transform="translate(28.671 590.693)" fill="none" stroke="#6375fe" stroke-miterlimit="10" stroke-width="2.5"/><line x2="0.014" y2="3.677" transform="translate(171.66 559.132)" fill="none" stroke="#6375fe" stroke-miterlimit="10" stroke-width="2.5"/><line x2="10.439" y2="0.04" transform="translate(166.491 562.789)" fill="none" stroke="#6375fe" stroke-miterlimit="10" stroke-width="2.5"/><path d="M0,0,8.409.032l.109,28.355L.109,28.355" transform="translate(259.694 514.529)" fill="none" stroke="#6375fe" stroke-miterlimit="10" stroke-width="2.5"/><path d="M5.192.02,0,0,.027,7.126l5.192.02" transform="translate(163.019 520.496)" fill="none" stroke="#6375fe" stroke-miterlimit="10" stroke-width="2.5"/><path d="M5.191.02,0,0,.027,7.126l5.191.02" transform="translate(146.61 520.433)" fill="none" stroke="#6375fe" stroke-miterlimit="10" stroke-width="2.5"/><path d="M0,0,11.218.043l.05,13.108L.05,13.108Z" transform="translate(151.79 517.462)" fill="none" stroke="#6375fe" stroke-width="2.5"/><path d="M8.02.03,0,0,.111,28.856l8.02.03" transform="translate(75.339 515.073)" fill="none" stroke="#6375fe" stroke-miterlimit="10" stroke-width="2.5"/><line x2="1.979" y2="39.424" transform="translate(13.628 513.894)" fill="none" stroke="#6375fe" stroke-miterlimit="10" stroke-width="2.5"/><path d="M.8,241.122,0,33.994,18.126,0l6.6.025" transform="translate(315.877 268.024)" fill="none" stroke="#6375fe" stroke-miterlimit="10" stroke-width="2.5"/><line x2="24.57" y2="0.093" transform="translate(316.444 449.724)" fill="none" stroke="#6375fe" stroke-miterlimit="10" stroke-width="2.5"/><line x2="23.297" y2="0.088" transform="translate(316.966 478.528)" fill="none" stroke="#6375fe" stroke-miterlimit="10" stroke-width="2.5"/><line x1="17.132" y2="15.582" transform="translate(299.799 420.216)" fill="none" stroke="#6375fe" stroke-miterlimit="10" stroke-width="2.5"/><line x2="12.034" y2="17.027" transform="translate(320.194 484.942)" fill="none" stroke="#6375fe" stroke-miterlimit="10" stroke-width="2.5"/><line x1="11.904" y2="16.936" transform="translate(320.259 484.987)" fill="none" stroke="#6375fe" stroke-miterlimit="10" stroke-width="2.5"/><line x2="0.143" y2="37.291" transform="translate(200.31 444.32)" fill="none" stroke="#6375fe" stroke-miterlimit="10" stroke-width="2.5"/><line x2="8.644" y2="14.757" transform="translate(307.885 457.105)" fill="none" stroke="#6375fe" stroke-miterlimit="10" stroke-width="2.5"/><line y1="9.989" x2="10.001" transform="translate(306.365 429.493)" fill="none" stroke="#6375fe" stroke-miterlimit="10" stroke-width="2.5"/><path d="M0,0,3.549.013l.01,2.645L.01,2.645Z" transform="translate(19.138 559.586)" fill="none" stroke="#6375fe" stroke-width="2.5"/><path d="M0,0,3.549.013l.01,2.645L.01,2.645Z" transform="translate(328.774 548.245)" fill="none" stroke="#6375fe" stroke-width="2.5"/><path d="M0,9.575l6.958,6.867,9.785-7.76L9.057,0Z" transform="translate(42.181 514.982)" fill="none" stroke="#6375fe" stroke-miterlimit="10" stroke-width="2.5"/><path d="M2.29,0,5.622.013A2.3,2.3,0,0,1,7.929,2.29l.042,10.8a2.263,2.263,0,0,1-2.29,2.26l-3.332-.013A2.3,2.3,0,0,1,.042,13.062L0,2.26A2.263,2.263,0,0,1,2.29,0Z" transform="translate(49.951 533.772)" fill="none" stroke="#6375fe" stroke-width="2.5"/><path d="M.531,32.028l15.229.058L6.82,14.377,15.649,3.05,11.756.045,0,0Z" transform="translate(23.854 516.977)" fill="none" stroke="#6375fe" stroke-miterlimit="10" stroke-width="2.5"/><path d="M7.31,38.168,0,24.192,7.806,13.71,12.741,0,27.854.057l3.893,3.006L22.918,14.39,31.858,32.1l-2.9-.011L20.021,24.05Z" transform="translate(3.531 137.973)" fill="none" stroke="#6375fe" stroke-miterlimit="10" stroke-width="2.5"/><path d="M1.2,0A1.206,1.206,0,0,1,2.405,1.191a1.184,1.184,0,0,1-1.2,1.182A1.206,1.206,0,0,1,0,1.182,1.184,1.184,0,0,1,1.2,0Z" transform="translate(52.733 540.261)" fill="none" stroke="#6375fe" stroke-width="2.5"/><path d="M16.743,6.867,9.785,0,0,7.76l7.686,8.682Z" transform="translate(286.397 532.326)" fill="none" stroke="#6375fe" stroke-miterlimit="10" stroke-width="2.5"/><path d="M2.29,0,5.622.013A2.3,2.3,0,0,1,7.929,2.29l.042,10.8a2.263,2.263,0,0,1-2.29,2.26l-3.332-.013A2.3,2.3,0,0,1,.042,13.062L0,2.26A2.263,2.263,0,0,1,2.29,0Z" transform="translate(295.37 529.978) rotate(180)" fill="none" stroke="#6375fe" stroke-width="2.5"/><path d="M15.23.058,0,0,8.94,17.709.112,29.036,4,32.042l11.756.045Z" transform="translate(305.707 514.687)" fill="none" stroke="#6375fe" stroke-miterlimit="10" stroke-width="2.5"/><path d="M1.2,0A1.206,1.206,0,0,1,2.405,1.191a1.184,1.184,0,0,1-1.2,1.182A1.206,1.206,0,0,1,0,1.182,1.184,1.184,0,0,1,1.2,0Z" transform="translate(290.182 521.115)" fill="none" stroke="#6375fe" stroke-width="2.5"/><line x2="14.69" y2="0.056" transform="translate(321.752 444.18)" fill="none" stroke="#6375fe" stroke-miterlimit="10" stroke-width="2.5"/><line x2="14.69" y2="0.056" transform="translate(8.446 442.992)" fill="none" stroke="#6375fe" stroke-miterlimit="10" stroke-width="2.5"/><line x2="14.69" y2="0.056" transform="translate(8.464 447.864)" fill="none" stroke="#6375fe" stroke-miterlimit="10" stroke-width="2.5"/><line x2="14.69" y2="0.056" transform="translate(8.412 434.288)" fill="none" stroke="#6375fe" stroke-miterlimit="10" stroke-width="2.5"/><line x2="14.69" y2="0.056" transform="translate(8.391 428.743)" fill="none" stroke="#6375fe" stroke-miterlimit="10" stroke-width="2.5"/><line x2="15.191" y2="0.058" transform="translate(321.231 438.906)" fill="none" stroke="#6375fe" stroke-miterlimit="10" stroke-width="2.5"/><line x2="15.191" y2="0.058" transform="translate(321.205 432.234)" fill="none" stroke="#6375fe" stroke-miterlimit="10" stroke-width="2.5"/><line x2="15.191" y2="0.058" transform="translate(321.183 426.506)" fill="none" stroke="#6375fe" stroke-miterlimit="10" stroke-width="2.5"/><line x2="0.34" y2="88.387" transform="translate(26.797 419.662)" fill="none" stroke="#6375fe" stroke-miterlimit="10" stroke-width="2.5"/><line x2="0.101" y2="26.387" transform="translate(15.72 424.755)" fill="none" stroke="#6375fe" stroke-miterlimit="10" stroke-width="2.5"/><line x2="24.74" y2="0.094" transform="translate(1.727 454.245)" fill="none" stroke="#6375fe" stroke-miterlimit="10" stroke-width="2.5"/><line x2="24.74" y2="0.094" transform="translate(1.833 481.778)" fill="none" stroke="#6375fe" stroke-miterlimit="10" stroke-width="2.5"/><path d="M0,0C.005,0,13.762,6.72,13.777,10.543" transform="translate(9.471 461.799)" fill="none" stroke="#6375fe" stroke-miterlimit="10" stroke-width="2.5"/><line y1="7.913" x2="7.33" transform="translate(10.245 466.423)" fill="none" stroke="#6375fe" stroke-miterlimit="10" stroke-width="2.5"/><path d="M0,0C.005,0,13.762,6.718,13.777,10.541" transform="translate(9.579 489.713)" fill="none" stroke="#6375fe" stroke-miterlimit="10" stroke-width="2.5"/><line y1="7.913" x2="7.33" transform="translate(10.352 494.336)" fill="none" stroke="#6375fe" stroke-miterlimit="10" stroke-width="2.5"/><path d="M53.977,24.989c.107-.927-.1-24.9-.1-24.9L29.537,0l.1,24.9-5.192-.02L24.351,1.286,0,1.193.089,24.305" transform="translate(229.445 484.031)" fill="none" stroke="#6375fe" stroke-miterlimit="10" stroke-width="2.5"/><path d="M.02,26.086,0,20.993S24.342,18.865,43.46,0c.264-.13,10.785,14.407,10.449,14.536S45.359,21.3,21.953,26.169" transform="translate(229.425 459.139)" fill="none" stroke="#6375fe" stroke-miterlimit="10" stroke-width="2.5"/><path d="M53.975,24.99c.107-.927-.1-24.9-.1-24.9L29.535,0l.1,24.9-5.189-.02-.091-23.59L0,1.195.089,24.307" transform="translate(249.162 242.918)" fill="none" stroke="#6375fe" stroke-miterlimit="10" stroke-width="2.5"/><path d="M.02,26.088,0,20.993S24.342,18.865,43.458,0c.264-.13,10.785,14.407,10.449,14.536S45.357,21.3,21.952,26.171" transform="translate(249.142 218.025)" fill="none" stroke="#6375fe" stroke-miterlimit="10" stroke-width="2.5"/><path d="M.1,24.45C-.018,23.522,0,0,0,0L24.345.092l.1,24.9,5.189.02L29.54,1.417l24.351.092L53.981,25.1" transform="translate(66.403 483.301)" fill="none" stroke="#6375fe" stroke-miterlimit="10" stroke-width="2.5"/><path d="M53.987,26.416l-.02-5.093S29.608,19.01,10.347,0C10.082-.131-.327,14.326.008,14.458s8.6,6.824,32.046,11.875" transform="translate(66.306 458.395)" fill="none" stroke="#6375fe" stroke-miterlimit="10" stroke-width="2.5"/><path d="M.1,24.451C-.018,23.524,0,0,0,0L24.345.092l.1,24.9,5.191.02-.091-23.59,24.351.092.091,23.59" transform="translate(38.53 242.007)" fill="none" stroke="#6375fe" stroke-miterlimit="10" stroke-width="2.5"/><path d="M53.987,26.418l-.02-5.094S29.609,19.01,10.345,0C10.081-.131-.329,14.326.008,14.458s8.6,6.824,32.046,11.877" transform="translate(38.435 217.101)" fill="none" stroke="#6375fe" stroke-miterlimit="10" stroke-width="2.5"/><line x2="0.172" y2="44.87" transform="translate(283.421 509.021)" fill="none" stroke="#6375fe" stroke-miterlimit="10" stroke-width="2.5"/><line x2="0.087" y2="22.71" transform="translate(328.771 424.641)" fill="none" stroke="#6375fe" stroke-miterlimit="10" stroke-width="2.5"/><path d="M23.277,15.46,6.4,0S-.044,3.76,0,15.372" transform="translate(310.726 252.564)" fill="none" stroke="#6375fe" stroke-miterlimit="10" stroke-width="2.5"/><line x1="335.464" y1="1.272" transform="translate(2.536 176.856)" fill="none" stroke="#6375fe" stroke-miterlimit="10" stroke-width="2.5"/><line x2="0.349" y2="90.764" transform="translate(170.199 177.491)" fill="none" stroke="#6375fe" stroke-miterlimit="10" stroke-width="2.5"/><path d="M0,0" transform="translate(185.169 267.46)" fill="none" stroke="#6375fe" stroke-miterlimit="10" stroke-width="2.5"/><line x2="102.249" y2="0.388" transform="translate(184.702 267.458)" fill="none" stroke="#6375fe" stroke-miterlimit="10" stroke-width="2.5"/><path d="M0,0,67.425.256l.345,89.913L.345,89.913Z" transform="translate(31.63 176.966)" fill="none" stroke="#6375fe" stroke-width="2.5"/><path d="M0,0,67.425.256l.345,89.913L.345,89.913Z" transform="translate(242.955 177.767)" fill="none" stroke="#6375fe" stroke-width="2.5"/><path d="M.1,27.3,20.831,8.562S16.68.063,0,0" transform="translate(287.385 380.724)" fill="none" stroke="#6375fe" stroke-miterlimit="10" stroke-width="2.5"/><path d="M.051,13.186l10.366-8.7S8.34.032,0,0" transform="translate(287.206 334.279)" fill="none" stroke="#6375fe" stroke-miterlimit="10" stroke-width="2.5"/><path d="M0,14.835l7.7.029L23.335,0S30.86,3.79,30.9,14.952" transform="translate(1.072 251.927)" fill="none" stroke="#6375fe" stroke-miterlimit="10" stroke-width="2.5"/><line x2="16.969" y2="36" transform="translate(8.775 266.791)" fill="none" stroke="#6375fe" stroke-miterlimit="10" stroke-width="2.5"/><path d="M0,0,32.107.122l.181,47.2L.181,47.2Z" transform="translate(0 301.098)" fill="none" stroke="#6375fe" stroke-width="2.5"/><path d="M0,0,28.145.107,28.262,30.7.118,30.591Z" transform="translate(4.026 317.723)" fill="none" stroke="#6375fe" stroke-width="2.5"/><line x2="0.875" y2="71.265" transform="translate(19.504 348.372)" fill="none" stroke="#6375fe" stroke-miterlimit="10" stroke-width="2.5"/><line x2="19.593" y2="0.074" transform="translate(0.343 382.271)" fill="none" stroke="#6375fe" stroke-miterlimit="10" stroke-width="2.5"/><line x2="19.474" y2="0.074" transform="translate(0.247 365.128)" fill="none" stroke="#6375fe" stroke-miterlimit="10" stroke-width="2.5"/><path d="M10.066,0A10.131,10.131,0,0,1,20.208,10.009a9.946,9.946,0,0,1-10.065,9.933A10.131,10.131,0,0,1,0,9.933,9.946,9.946,0,0,1,10.066,0Z" transform="translate(37.13 384.883)" fill="none" stroke="#6375fe" stroke-width="2.5"/><line x2="15.303" y2="22.954" transform="translate(42.089 386.341)" fill="none" stroke="#6375fe" stroke-miterlimit="10" stroke-width="2.5"/><path d="M13.008,0,1.844,1.841A2.036,2.036,0,0,0,0,3.867L.016,8.12a2.069,2.069,0,0,0,1.616,2l11.422,1.927" transform="translate(6.94 385.66)" fill="none" stroke="#6375fe" stroke-miterlimit="10" stroke-width="2.5"/><path d="M.061,15.961l11.166-1.843a2.034,2.034,0,0,0,1.842-2.024l-.031-8.17a2.07,2.07,0,0,0-1.614-2L0,0" transform="translate(60.238 138.44)" fill="none" stroke="#6375fe" stroke-miterlimit="10" stroke-width="2.5"/><path d="M13.008,0,1.842,1.841A2.032,2.032,0,0,0,0,3.865l.031,8.172a2.069,2.069,0,0,0,1.614,2l11.424,1.928" transform="translate(266.071 139.27)" fill="none" stroke="#6375fe" stroke-miterlimit="10" stroke-width="2.5"/><path d="M13.008,0,1.844,1.841A2.037,2.037,0,0,0,0,3.867L.016,8.12a2.069,2.069,0,0,0,1.616,2l11.422,1.927" transform="translate(7.003 402.211)" fill="none" stroke="#6375fe" stroke-miterlimit="10" stroke-width="2.5"/><path d="M.046,12.045,11.21,10.2a2.037,2.037,0,0,0,1.844-2.026l-.016-4.253a2.069,2.069,0,0,0-1.616-2L0,0" transform="translate(322.181 403.089)" fill="none" stroke="#6375fe" stroke-miterlimit="10" stroke-width="2.5"/><path d="M.046,12.045,11.21,10.2A2.034,2.034,0,0,0,13.054,8.18l-.016-4.255a2.067,2.067,0,0,0-1.616-2L0,0" transform="translate(322.118 386.536)" fill="none" stroke="#6375fe" stroke-miterlimit="10" stroke-width="2.5"/><line x2="0.276" y2="71.844" transform="translate(321.973 348.938)" fill="none" stroke="#6375fe" stroke-miterlimit="10" stroke-width="2.5"/><line x2="19.655" y2="0.075" transform="translate(322.102 382.514)" fill="none" stroke="#6375fe" stroke-miterlimit="10" stroke-width="2.5"/><path d="M0,0,5.754.022l.112,29.054L.112,29.054Z" transform="translate(321.99 353.46)" fill="none" stroke="#6375fe" stroke-width="2.5"/><line x1="14.006" y1="0.053" transform="translate(327.794 366.37)" fill="none" stroke="#6375fe" stroke-miterlimit="10" stroke-width="2.5"/><line x2="0.173" y2="45.108" transform="translate(326.604 303.849)" fill="none" stroke="#6375fe" stroke-miterlimit="10" stroke-width="2.5"/><line x2="13.768" y2="0.052" transform="translate(319.963 334.403)" fill="none" stroke="#6375fe" stroke-miterlimit="10" stroke-width="2.5"/><line x2="13.768" y2="0.052" transform="translate(319.944 329.644)" fill="none" stroke="#6375fe" stroke-miterlimit="10" stroke-width="2.5"/><line x2="13.768" y2="0.052" transform="translate(319.912 321.186)" fill="none" stroke="#6375fe" stroke-miterlimit="10" stroke-width="2.5"/><line x2="13.768" y2="0.052" transform="translate(319.894 316.427)" fill="none" stroke="#6375fe" stroke-miterlimit="10" stroke-width="2.5"/><path d="M236.444.9l55.348.21.19,49.508a5.545,5.545,0,0,1-5.613,5.537L5.846,55.088A5.65,5.65,0,0,1,.19,49.508L0,0,56.939.216" transform="translate(23.205 71.792)" fill="none" stroke="#6375fe" stroke-miterlimit="10" stroke-width="2.5"/><path d="M0,0,30.513.116l.116,30.112L.116,30.112Z" transform="translate(34.466 82.537)" fill="none" stroke="#6375fe" stroke-width="2.5"/><path d="M0,0,30.513.116l.116,30.112L.116,30.112Z" transform="translate(274.011 83.446)" fill="none" stroke="#6375fe" stroke-width="2.5"/><path d="M99.292,5.492,6.116,5.714,0,0" transform="translate(236.669 127.668)" fill="none" stroke="#6375fe" stroke-miterlimit="10" stroke-width="2.5"/><path d="M0,4.739l93.18.929L99.252,0" transform="translate(4.605 127.165)" fill="none" stroke="#6375fe" stroke-miterlimit="10" stroke-width="2.5"/><line x2="0.171" y2="44.617" transform="translate(60.215 132.458)" fill="none" stroke="#6375fe" stroke-miterlimit="10" stroke-width="2.5"/><line x2="0.171" y2="44.617" transform="translate(279.055 133.288)" fill="none" stroke="#6375fe" stroke-miterlimit="10" stroke-width="2.5"/><path d="M7.718,0S-.216,40.777,0,98.21" transform="translate(327.865 34.969)" fill="none" stroke="#6375fe" stroke-miterlimit="10" stroke-width="2.5"/><path d="M0,0S8.25,40.838,8.47,98.272" transform="translate(3.949 33.711)" fill="none" stroke="#6375fe" stroke-miterlimit="10" stroke-width="2.5"/><path d="M8.823,61.015S2.844,27.218.139,10.982A11.409,11.409,0,0,1,1.545,3.557,7.066,7.066,0,0,1,7.783,0l21.14.08a5.561,5.561,0,0,1,5.426,4.369L46.427,61.158" transform="translate(14.535 10.778)" fill="none" stroke="#6375fe" stroke-miterlimit="10" stroke-width="2.5"/><line x1="1.499" y1="38.936" transform="translate(52.663 32.973)" fill="none" stroke="#6375fe" stroke-miterlimit="10" stroke-width="2.5"/><path d="M37.6,61.088s5.72-33.753,8.3-49.969a11.515,11.515,0,0,0-1.461-7.434A7.192,7.192,0,0,0,38.177.08L17.037,0a5.452,5.452,0,0,0-5.393,4.328L0,60.945" transform="translate(277.251 11.782)" fill="none" stroke="#6375fe" stroke-miterlimit="10" stroke-width="2.5"/><line y1="38.926" x2="1.2" transform="translate(284.051 33.827)" fill="none" stroke="#6375fe" stroke-miterlimit="10" stroke-width="2.5"/><path d="M0,9.575l6.958,6.867,9.785-7.76L9.057,0Z" transform="translate(40.186 137.662)" fill="none" stroke="#6375fe" stroke-miterlimit="10" stroke-width="2.5"/><path d="M2.29,0,5.622.013A2.3,2.3,0,0,1,7.929,2.29l.042,10.8a2.263,2.263,0,0,1-2.29,2.26l-3.332-.013A2.3,2.3,0,0,1,.042,13.062L0,2.26A2.263,2.263,0,0,1,2.29,0Z" transform="translate(47.955 156.452)" fill="none" stroke="#6375fe" stroke-width="2.5"/><path d="M1.2,0A1.206,1.206,0,0,1,2.405,1.191a1.184,1.184,0,0,1-1.2,1.182A1.206,1.206,0,0,1,0,1.182,1.184,1.184,0,0,1,1.2,0Z" transform="translate(50.738 162.941)" fill="none" stroke="#6375fe" stroke-width="2.5"/><path d="M24.707,38.268l7.2-13.921L24.024,13.8,18.982.057,3.87,0,0,2.976,8.916,14.37.112,32.012l2.9.011,8.876-7.97Z" transform="translate(305.143 139.084)" fill="none" stroke="#6375fe" stroke-miterlimit="10" stroke-width="2.5"/><path d="M16.75,9.644,9.845,16.458,0,8.624,7.619,0Z" transform="translate(283.603 156.81)" fill="none" stroke="#6375fe" stroke-miterlimit="10" stroke-width="2.5"/><path d="M2.29,0,5.622.013A2.3,2.3,0,0,1,7.929,2.29l.042,10.8a2.263,2.263,0,0,1-2.29,2.26l-3.332-.013A2.3,2.3,0,0,1,.042,13.062L0,2.26A2.263,2.263,0,0,1,2.29,0Z" transform="translate(292.57 153.915) rotate(180)" fill="none" stroke="#6375fe" stroke-width="2.5"/><path d="M1.2,0A1.206,1.206,0,0,1,2.405,1.191a1.184,1.184,0,0,1-1.2,1.182A1.206,1.206,0,0,1,0,1.182,1.184,1.184,0,0,1,1.2,0Z" transform="translate(287.383 145.052)" fill="none" stroke="#6375fe" stroke-width="2.5"/><path d="M30.224,0c16.741.063,30.351,10.353,30.4,22.982S47.141,45.8,30.4,45.734.049,35.381,0,22.752,13.483-.063,30.224,0Z" transform="translate(110.814 328.312)" fill="none" stroke="#6375fe" stroke-width="2.5"/><path d="M78.739,0C95.7,7.71,107.29,22.861,107.356,40.248c.1,25.106-23.858,45.365-53.5,45.253S.1,64.946,0,39.841" transform="translate(87.447 310.794)" fill="none" stroke="#6375fe" stroke-miterlimit="10" stroke-width="2.5"/><path d="M85.35,0c18.3,8.363,30.788,24.732,30.86,43.513.1,27.176-25.825,49.107-57.916,48.986S.1,70.248,0,43.072" transform="translate(83.019 307.545)" fill="none" stroke="#6375fe" stroke-miterlimit="10" stroke-width="2.5"/><path d="M94.007,0c20.042,9.215,33.707,27.179,33.786,47.781.115,29.885-28.4,54-63.69,53.868S.115,77.181,0,47.3" transform="translate(77.229 303.299)" fill="none" stroke="#6375fe" stroke-miterlimit="10" stroke-width="2.5"/><line x2="0.176" y2="45.734" transform="translate(141.038 328.313)" fill="none" stroke="#6375fe" stroke-miterlimit="10" stroke-width="2.5"/><line x2="16.015" y2="43.036" transform="translate(133.118 329.662)" fill="none" stroke="#6375fe" stroke-miterlimit="10" stroke-width="2.5"/><line x2="32.644" y2="38.343" transform="translate(124.924 332.148)" fill="none" stroke="#6375fe" stroke-miterlimit="10" stroke-width="2.5"/><line x2="48.074" y2="27.513" transform="translate(116.884 337.306)" fill="none" stroke="#6375fe" stroke-miterlimit="10" stroke-width="2.5"/><line x2="58.544" y2="10.402" transform="translate(111.81 345.971)" fill="none" stroke="#6375fe" stroke-miterlimit="10" stroke-width="2.5"/><line y1="9.867" x2="59.355" transform="translate(111.595 346.315)" fill="none" stroke="#6375fe" stroke-miterlimit="10" stroke-width="2.5"/><line y1="26.259" x2="49.018" transform="translate(116.483 338.091)" fill="none" stroke="#6375fe" stroke-miterlimit="10" stroke-width="2.5"/><line y1="38.083" x2="32.689" transform="translate(124.968 332.108)" fill="none" stroke="#6375fe" stroke-miterlimit="10" stroke-width="2.5"/><line y1="42.916" x2="15.685" transform="translate(133.284 329.722)" fill="none" stroke="#6375fe" stroke-miterlimit="10" stroke-width="2.5"/><path d="M.047,29.836,0,17.56,11.811,0,70.169.221l.446,116.1" transform="translate(159.442 303.26)" fill="none" stroke="#6375fe" stroke-miterlimit="10" stroke-width="2.5"/><line y1="14.432" x2="29.913" transform="translate(167.707 325.908)" fill="none" stroke="#6375fe" stroke-miterlimit="10" stroke-width="2.5"/><line x1="32.973" y1="4.967" transform="translate(170.924 356.432)" fill="none" stroke="#6375fe" stroke-miterlimit="10" stroke-width="2.5"/><line x2="23.273" y2="22.587" transform="translate(160.059 369.148)" fill="none" stroke="#6375fe" stroke-miterlimit="10" stroke-width="2.5"/><line x2="7.466" y2="29.983" transform="translate(145.812 374.064)" fill="none" stroke="#6375fe" stroke-miterlimit="10" stroke-width="2.5"/><line x1="11.734" y2="28.91" transform="translate(119.974 372.861)" fill="none" stroke="#6375fe" stroke-miterlimit="10" stroke-width="2.5"/><line x1="27.72" y2="17.499" transform="translate(90.465 365.986)" fill="none" stroke="#6375fe" stroke-miterlimit="10" stroke-width="2.5"/><path d="M54.031,52.407l-6.364-3.942L0,48.285H0l.266,69.259,230.1.873L229.916.109,201.177,0l-8.892,17.579" transform="translate(57.167 302.235)" fill="none" stroke="#6375fe" stroke-miterlimit="10" stroke-width="2.5"/><path d="M20.648,152.88l-.383-99.639L.2,53.166,0,0,88.611.336" transform="translate(56.846 266.973)" fill="none" stroke="#6375fe" stroke-miterlimit="10" stroke-width="2.5"/><path d="M0,52.066l7.86.03L34.249,25.06l22.764.086,8.61-8.817L65.56,0" transform="translate(75.043 268.141)" fill="none" stroke="#6375fe" stroke-miterlimit="10" stroke-width="2.5"/><path d="M0,3.232l87.741.333L87.727,0" transform="translate(56.859 267.306)" fill="none" stroke="#6375fe" stroke-miterlimit="10" stroke-width="2.5"/><path d="M0,0,.064,16.57l31.255.119L31.257.588" transform="translate(101.193 270.706)" fill="none" stroke="#6375fe" stroke-miterlimit="10" stroke-width="2.5"/><path d="M0,26.662l5.34.02L32.379,0" transform="translate(56.965 271.319)" fill="none" stroke="#6375fe" stroke-miterlimit="10" stroke-width="2.5"/><line x2="0.117" y2="30.38" transform="translate(69.675 320.187)" fill="none" stroke="#6375fe" stroke-miterlimit="10" stroke-width="2.5"/><line x2="0.117" y2="30.38" transform="translate(61.08 320.154)" fill="none" stroke="#6375fe" stroke-miterlimit="10" stroke-width="2.5"/><line x2="0.181" y2="46.993" transform="translate(70.948 350.906)" fill="none" stroke="#6375fe" stroke-miterlimit="10" stroke-width="2.5"/><line x1="20.578" y1="0.078" transform="translate(57.349 397.847)" fill="none" stroke="#6375fe" stroke-miterlimit="10" stroke-width="2.5"/><path d="M10.45,30.42l-.073-19.112L0,0" transform="translate(82.903 320.237)" fill="none" stroke="#6375fe" stroke-miterlimit="10" stroke-width="2.5"/><path d="M0,0,.1,25.845l24.772.094" transform="translate(204.841 303.949)" fill="none" stroke="#6375fe" stroke-miterlimit="10" stroke-width="2.5"/><path d="M.071,18.587,0,0,66.2.251" transform="translate(163.786 401.594)" fill="none" stroke="#6375fe" stroke-miterlimit="10" stroke-width="2.5"/><path d="M.107,27.97,0,0,27.339.1" transform="translate(202.544 374.279)" fill="none" stroke="#6375fe" stroke-miterlimit="10" stroke-width="2.5"/><line x2="43.78" y2="0.166" transform="translate(202.574 382.155)" fill="none" stroke="#6375fe" stroke-miterlimit="10" stroke-width="2.5"/><path d="M16.644,52.957,16.441.062,0,0" transform="translate(229.856 367.213)" fill="none" stroke="#6375fe" stroke-miterlimit="10" stroke-width="2.5"/><line x2="57.477" y2="0.218" transform="translate(229.87 371.07)" fill="none" stroke="#6375fe" stroke-miterlimit="10" stroke-width="2.5"/><line x2="27.34" y2="0.413" transform="translate(202.623 394.802)" fill="none" stroke="#6375fe" stroke-miterlimit="10" stroke-width="2.5"/><line x2="57.094" y2="0.216" transform="translate(229.989 401.844)" fill="none" stroke="#6375fe" stroke-miterlimit="10" stroke-width="2.5"/><path d="M0,0,26.923.1l.124,32.288-26.923-.1Z" transform="translate(253.203 377.926)" fill="none" stroke="#6375fe" stroke-width="2.5"/><path d="M9.163,0a9.222,9.222,0,0,1,9.232,9.111,9.054,9.054,0,0,1-9.162,9.042A9.222,9.222,0,0,1,0,9.042,9.054,9.054,0,0,1,9.163,0Z" transform="translate(93.476 304.537)" fill="none" stroke="#6375fe" stroke-width="2.5"/><line x2="1.413" y2="12.189" transform="translate(101.536 308.124)" fill="none" stroke="#6375fe" stroke-miterlimit="10" stroke-width="2.5"/><line x2="0.171" y2="44.495" transform="translate(206.699 329.801)" fill="none" stroke="#6375fe" stroke-miterlimit="10" stroke-width="2.5"/><path d="M0,0,12.393.047l.124,32.259L.124,32.259Z" transform="translate(211.379 335.841)" fill="none" stroke="#6375fe" stroke-width="2.5"/><path d="M4.741,0S-.03,7.363,0,15.172,4.858,30.38,4.858,30.38" transform="translate(52.309 320.139)" fill="none" stroke="#6375fe" stroke-miterlimit="10" stroke-width="2.5"/><path d="M5.383,0S-.034,8.361,0,17.229,5.515,34.5,5.515,34.5" transform="translate(262.919 267.775)" fill="none" stroke="#6375fe" stroke-miterlimit="10" stroke-width="2.5"/><path d="M.133,34.5S5.549,26.137,5.515,17.27,0,0,0,0" transform="translate(286.331 267.843)" fill="none" stroke="#6375fe" stroke-miterlimit="10" stroke-width="2.5"/><path d="M0,0,8.825,14.682l.116,30.1" transform="translate(249.474 325.457)" fill="none" stroke="#6375fe" stroke-miterlimit="10" stroke-width="2.5"/><path d="M24.04,23.4,23.95.091,0,0" transform="translate(258.328 347.867)" fill="none" stroke="#6375fe" stroke-miterlimit="10" stroke-width="2.5"/><path d="M3.766,0A3.79,3.79,0,0,1,7.56,3.745,3.721,3.721,0,0,1,3.794,7.461,3.79,3.79,0,0,1,0,3.716,3.721,3.721,0,0,1,3.766,0Z" transform="translate(262.771 351.539)" fill="none" stroke="#6375fe" stroke-width="2.5"/><path d="M7.724,0a7.774,7.774,0,0,1,7.783,7.681A7.632,7.632,0,0,1,7.783,15.3,7.774,7.774,0,0,1,0,7.622,7.632,7.632,0,0,1,7.724,0Z" transform="translate(261.969 304.855)" fill="none" stroke="#6375fe" stroke-width="2.5"/><path d="M2.425,0A2.441,2.441,0,0,1,4.869,2.412,2.4,2.4,0,0,1,2.444,4.805,2.441,2.441,0,0,1,0,2.393,2.4,2.4,0,0,1,2.425,0Z" transform="translate(273.36 352.901)" fill="none" stroke="#6375fe" stroke-width="2.5"/><path d="M2.425,0A2.441,2.441,0,0,1,4.869,2.412,2.4,2.4,0,0,1,2.444,4.805,2.441,2.441,0,0,1,0,2.393,2.4,2.4,0,0,1,2.425,0Z" transform="translate(273.395 362.073)" fill="none" stroke="#6375fe" stroke-width="2.5"/><path d="M3.766,0A3.79,3.79,0,0,1,7.56,3.745,3.721,3.721,0,0,1,3.794,7.461,3.79,3.79,0,0,1,0,3.716,3.721,3.721,0,0,1,3.766,0Z" transform="translate(262.809 361.374)" fill="none" stroke="#6375fe" stroke-width="2.5"/><line x1="14.503" y1="0.055" transform="translate(268.148 312.501)" fill="none" stroke="#6375fe" stroke-miterlimit="10" stroke-width="2.5"/><path d="M7.724,0a7.774,7.774,0,0,1,7.783,7.681A7.632,7.632,0,0,1,7.783,15.3,7.774,7.774,0,0,1,0,7.622,7.632,7.632,0,0,1,7.724,0Z" transform="translate(262.037 322.557)" fill="none" stroke="#6375fe" stroke-width="2.5"/><line x1="14.503" y1="0.055" transform="translate(268.216 330.203)" fill="none" stroke="#6375fe" stroke-miterlimit="10" stroke-width="2.5"/><path d="M2.792,0A2.81,2.81,0,0,1,5.605,2.776,2.759,2.759,0,0,1,2.813,5.531,2.81,2.81,0,0,1,0,2.755,2.759,2.759,0,0,1,2.792,0Z" transform="translate(278.338 338.855)" fill="none" stroke="#6375fe" stroke-width="2.5"/></g><g transform="translate(1536.451 1347.907)"><g transform="translate(0)"><path d="M432.61,485.3a45.812,45.812,0,0,0,78.872,0" transform="translate(-432.61 -485.3)" fill="none" stroke="#6678fe" stroke-linecap="round" stroke-miterlimit="10" stroke-width="2"/><path d="M440.62,485.3a45.812,45.812,0,0,0,78.872,0" transform="translate(-361.748 -485.3)" fill="none" stroke="#6678fe" stroke-linecap="round" stroke-miterlimit="10" stroke-width="2"/><path d="M448.63,485.3a45.811,45.811,0,0,0,78.871,0" transform="translate(-290.887 -485.3)" fill="none" stroke="#6678fe" stroke-linecap="round" stroke-miterlimit="10" stroke-width="2"/></g></g><g transform="translate(1116.93 1844.598)"><g transform="translate(0)"><path d="M440.62,485.3a45.812,45.812,0,0,0,78.872,0" transform="translate(-440.62 -485.3)" fill="none" stroke="#6678fe" stroke-linecap="round" stroke-miterlimit="10" stroke-width="2"/><path d="M448.63,485.3a45.811,45.811,0,0,0,78.871,0" transform="translate(-369.758 -485.3)" fill="none" stroke="#6678fe" stroke-linecap="round" stroke-miterlimit="10" stroke-width="2"/></g></g><g transform="translate(1038.058 1879.948)"><g transform="translate(0)"><path d="M440.62,485.3a45.812,45.812,0,0,0,78.872,0" transform="translate(-440.62 -485.3)" fill="none" stroke="#6678fe" stroke-linecap="round" stroke-miterlimit="10" stroke-width="2"/><path d="M448.63,485.3a45.811,45.811,0,0,0,78.871,0" transform="translate(-369.758 -485.3)" fill="none" stroke="#6678fe" stroke-linecap="round" stroke-miterlimit="10" stroke-width="2"/></g></g><circle cx="37.5" cy="37.5" r="37.5" transform="translate(1059 1479)" fill="#f4f4f4"/></g></svg>